<svg xmlns="http://www.w3.org/2000/svg" width="954.414" height="163.208" viewBox="0 0 954.414 163.208">
  <g id="Bobble_Graph_Chat" data-name="Bobble Graph Chat" transform="translate(-20 -0.004)" opacity="0.872">
    <circle id="Oval_7_Copy" data-name="Oval 7 Copy" cx="15.112" cy="15.112" r="15.112" transform="translate(20 123.317)" fill="#fd9c3a" opacity="0.542"/>
    <circle id="Oval_7_Copy_3" data-name="Oval 7 Copy 3" cx="17.53" cy="17.53" r="17.53" transform="translate(181.343 88.258)" fill="#bb2889" opacity="0.574"/>
    <circle id="Oval_7_Copy_4" data-name="Oval 7 Copy 4" cx="12.09" cy="12.09" r="12.09" transform="translate(298.611 103.974)" fill="#ea550f" opacity="0.358"/>
    <circle id="Oval_7_Copy_5" data-name="Oval 7 Copy 5" cx="8.463" cy="8.463" r="8.463" transform="translate(419.506 70.123)" fill="#6d4eda" opacity="0.358"/>
    <circle id="Oval_7_Copy_6" data-name="Oval 7 Copy 6" cx="18.134" cy="18.134" r="18.134" transform="translate(502.923 119.69)" fill="#fd9c3a" opacity="0.46"/>
    <circle id="Oval_7_Copy_7" data-name="Oval 7 Copy 7" cx="12.09" cy="12.09" r="12.09" transform="translate(649.206 49.571)" fill="#6d4eda" opacity="0.46"/>
    <circle id="Oval_7_Copy_8" data-name="Oval 7 Copy 8" cx="15.112" cy="15.112" r="15.112" transform="translate(736.251 0.004)" fill="#6234ce" opacity="0.409"/>
    <circle id="Oval_7_Copy_9" data-name="Oval 7 Copy 9" cx="10.881" cy="10.881" r="10.881" transform="translate(828.131 67.706)" fill="#6d4eda" opacity="0.358"/>
    <circle id="Oval_7_Copy_10" data-name="Oval 7 Copy 10" cx="11.485" cy="11.485" r="11.485" transform="translate(951.444 61.661)" fill="#6d4eda" opacity="0.358"/>
    <circle id="Oval_7_Copy_2" data-name="Oval 7 Copy 2" cx="7.858" cy="7.858" r="7.858" transform="translate(125.731 53.198)" fill="#edbed1"/>
    <circle id="Oval_7_Copy_12" data-name="Oval 7 Copy 12" cx="9.067" cy="9.067" r="9.067" transform="translate(471.491 85.84)" fill="#bb2889" opacity="0.579" style="mix-blend-mode: darken;isolation: isolate"/>
    <circle id="Oval_7_Copy_23" data-name="Oval 7 Copy 23" cx="6.045" cy="6.045" r="6.045" transform="translate(591.177 123.317)" fill="#2838ae" opacity="0.192" style="mix-blend-mode: darken;isolation: isolate"/>
    <circle id="Oval_7_Copy_18" data-name="Oval 7 Copy 18" cx="16.925" cy="16.925" r="16.925" transform="translate(375.984 129.362)" fill="#6a57b0" opacity="0.692" style="mix-blend-mode: darken;isolation: isolate"/>
    <circle id="Oval_7_Copy_12-2" data-name="Oval 7 Copy 12" cx="9.067" cy="9.067" r="9.067" transform="translate(620.192 61.661)" fill="#ea550f" opacity="0.358"/>
    <circle id="Oval_7_Copy_13" data-name="Oval 7 Copy 13" cx="9.067" cy="9.067" r="9.067" transform="translate(686.684 100.347)" fill="#f8478e" opacity="0.629"/>
    <circle id="Oval_7_Copy_14" data-name="Oval 7 Copy 14" cx="9.067" cy="9.067" r="9.067" transform="translate(774.937 97.929)" fill="#ea550f" opacity="0.358"/>
    <circle id="Oval_7_Copy_15" data-name="Oval 7 Copy 15" cx="9.067" cy="9.067" r="9.067" transform="translate(922.429 96.72)" fill="#9f47d0" opacity="0.66"/>
    <circle id="Oval_7_Copy_16" data-name="Oval 7 Copy 16" cx="9.067" cy="9.067" r="9.067" transform="translate(67.701 97.929)" fill="#fd9c3a" opacity="0.215"/>
    <circle id="Oval_7_Copy_8-2" data-name="Oval 7 Copy 8" cx="15.112" cy="15.112" r="15.112" transform="translate(736.251 0.004)" fill="#6234ce" opacity="0.409"/>
  </g>
</svg>
